<?xml version="1.0" encoding="utf-8"?>
<!-- Generator: Adobe Illustrator 23.1.1, SVG Export Plug-In . SVG Version: 6.00 Build 0)  -->
<svg version="1.1" id="Camada_1" xmlns="http://www.w3.org/2000/svg" xmlns:xlink="http://www.w3.org/1999/xlink" x="0px" y="0px"
	 viewBox="0 0 280 175.5" style="enable-background:new 0 0 280 175.5;" xml:space="preserve">
<style type="text/css">
	.st0{opacity:5.000000e-02;}
	.st1{fill:#0046A0;}
	.st2{fill:#00D7D7;}
	.st3{fill:#FFFFFF;}
	.st4{fill:#FFC800;}
	.st5{opacity:0.1;enable-background:new    ;}
	.st6{opacity:5.000000e-02;enable-background:new    ;}
	.st7{fill:url(#SVGID_1_);}
	.st8{fill:#00A5F0;}
	.st9{fill:#0073CD;}
</style>
<title>celular-icone-neon-steppet_v2_f489e5b3-f0f9-486b-8657-94439c8d2188</title>
<g class="st0">
	<path d="M74.1,116.3L74.1,116.3L74.1,116.3C74.1,116.3,74.1,116.3,74.1,116.3z"/>
</g>
<path class="st1" d="M178.5,60.4l29.5,17c3.7,2.1,3.2,5.8-1,8.2l-83.4,48.1c-4.2,2.4-10.6,2.7-14.3,0.6l-29.5-17
	c-3.7-2.1-3.2-5.8,1-8.2L164.3,61C168.5,58.5,174.9,58.2,178.5,60.4z"/>
<path class="st2" d="M165.2,64.3l36,20.8c0.5,0.3,0.4,0.8-0.1,1.1L130.4,127c-0.6,0.3-1.3,0.4-2,0.1l-36-20.8
	c-0.5-0.3-0.4-0.8,0.1-1.1l70.7-40.8C163.9,64,164.6,64,165.2,64.3z"/>
<ellipse transform="matrix(0.9927 -0.121 0.121 0.9927 -13.8568 13.3874)" class="st3" cx="103.3" cy="120.8" rx="4.4" ry="2.5"/>
<path class="st4" d="M193.3,75.5l-11.5-6.6c-0.3-0.1-0.6-0.1-0.9,0l0,0c-0.3,0.2-0.3,0.4-0.1,0.5l11.5,6.6c0.3,0.1,0.6,0.1,0.9,0
	l0,0C193.5,75.8,193.5,75.6,193.3,75.5z"/>
<path class="st1" d="M210.5,80.8c0.1,1.7-1.1,3.4-3.5,4.8l-83.4,48.1c-4.2,2.4-10.6,2.7-14.3,0.6l-29.5-17c-1.4-0.6-2.3-2-2.5-3.5
	l0,0v5.5l0,0c0.1,1.5,1.1,2.9,2.5,3.6l29.5,17c3.7,2.1,10.1,1.8,14.3-0.6L207,91.2c2.3-1.3,3.5-3.1,3.5-4.7l0,0L210.5,80.8
	L210.5,80.8z"/>
<path class="st5" d="M210.5,80.8c0.1,1.7-1.1,3.4-3.5,4.8l-83.4,48.1c-4.2,2.4-10.6,2.7-14.3,0.6l-29.5-17c-1.4-0.6-2.3-2-2.5-3.5
	l0,0v5.5l0,0c0.1,1.5,1.1,2.9,2.5,3.6l29.5,17c3.7,2.1,10.1,1.8,14.3-0.6L207,91.2c2.3-1.3,3.5-3.1,3.5-4.7l0,0L210.5,80.8
	L210.5,80.8z"/>
<path class="st6" d="M170.7,86.6l-23-13.3l-46.9,27.1l23,13.3c2.3,1,4.9,0.9,7.1-0.3l39.3-22.7C172.3,89.5,172.5,87.7,170.7,86.6z"
	/>
<linearGradient id="SVGID_1_" gradientUnits="userSpaceOnUse" x1="226.0162" y1="481.9489" x2="272.6922" y2="481.9489" gradientTransform="matrix(0.866 0.5 1.5 -0.289 -809.1326 93.6221)">
	<stop  offset="0" style="stop-color:#00A5F0"/>
	<stop  offset="1" style="stop-color:#00D7D7"/>
</linearGradient>
<path class="st7" d="M123.8,102.7L89.8,83c-1.8-1-1.6-2.9,0.5-4.1l39.3-22.7c2.2-1.2,4.8-1.3,7.1-0.3l34,19.6c1.8,1,1.6,2.9-0.5,4.1
	l-39.3,22.7C128.7,103.6,126.1,103.7,123.8,102.7z"/>
<path class="st3" d="M144.6,71c-7.8-4.5-21.4-3.9-30.4,1.3c-4.3,2.5-7,5.7-7.4,9c-0.2,1.4,1.7,2.5,4.2,2.4s4.6-1.3,4.8-2.8
	c0.2-1.9,1.8-3.8,4.3-5.3c5.2-3,13.2-3.4,17.7-0.7s4,7.2-1.3,10.2c-2.8,1.5-5.9,2.4-9.1,2.5c-2.5,0.1-4.6,1.3-4.8,2.8
	c0,0.8,0.4,1.5,1.1,1.8c1,0.5,2,0.7,3.1,0.6c5.5-0.2,10.8-1.6,15.7-4.3C151.5,83.4,152.4,75.5,144.6,71z"/>
<path class="st8" d="M171.9,77.4c-0.1,1-0.8,1.9-1.7,2.3l-39.3,22.7c-2.2,1.2-4.8,1.3-7.1,0.3L90.1,83.2l0,0v0L89.8,83
	c-0.7-0.3-1.2-1-1.2-1.8h0v4.1h0c0,0.8,0.5,1.4,1.2,1.8l34,19.7c2.3,1,4.9,0.9,7.1-0.3l39.3-22.7c1-0.4,1.6-1.3,1.7-2.4h0
	L171.9,77.4L171.9,77.4z"/>
<path class="st9" d="M222.3,28.8c2.2,0,4,1.8,4,4v124.6c0,2.2-1.8,4-4,4h-72.4c-2.1,0-4,1.1-5,2.9l-3,5.2l-1.7,2.9l-1.7-2.9l-3-5.2
	c-1-1.8-3-2.9-5-2.9h-73c-2.2,0-4-1.8-4-4V32.9c0-2.2,1.8-4,4-4L222.3,28.8 M222.3,26.3H57.4c-3.6,0-6.6,3-6.6,6.6v124.6
	c0,3.6,3,6.6,6.6,6.6h0h73c1.1,0,2.2,0.6,2.8,1.6l3,5.2l2.2,3.9c0.5,0.9,1.7,1.3,2.7,0.7c0.3-0.2,0.6-0.4,0.7-0.7l2.2-3.9l3-5.2
	c0.6-1,1.6-1.6,2.8-1.6h72.4c3.6,0,6.6-3,6.6-6.6v0V32.9C228.9,29.2,225.9,26.3,222.3,26.3L222.3,26.3L222.3,26.3z"/>
</svg>
